<?xml version="1.0" encoding="UTF-8"?>
<svg width="654px" height="632px" viewBox="0 0 654 632" version="1.1" xmlns="http://www.w3.org/2000/svg" xmlns:xlink="http://www.w3.org/1999/xlink">
    <!-- Generator: Sketch 50.2 (55047) - http://www.bohemiancoding.com/sketch -->
    <title>Group</title>
    <desc>Created with Sketch.</desc>
    <defs></defs>
    <g id="Page-1" stroke="none" stroke-width="1" fill="none" fill-rule="evenodd" fill-opacity="0.326964447">
        <g id="1-Home" transform="translate(-928.000000, -1270.000000)" fill="#1C2D41" fill-rule="nonzero">
            <g id="Section-2" transform="translate(266.000000, 1270.000000)">
                <g id="Group-9" transform="translate(662.000000, 0.000000)">
                    <g id="Group">
                        <path d="M616.152387,105.333333 L532.693548,105.333333 C518.126226,105.333333 506.322581,93.5465333 506.322581,79 C506.322581,64.4534667 518.126226,52.6666667 532.693548,52.6666667 L553.790323,52.6666667 C570.625548,52.6666667 583.905968,36.6981333 579.201387,19.1812 C576.089613,7.59453333 564.876677,0 552.862065,0 L342.822581,0 C325.987355,0 312.706935,15.9685333 317.411516,33.4854667 C320.52329,45.0721333 331.736226,52.6666667 343.750839,52.6666667 L353.370968,52.6666667 C362.105032,52.6666667 369.193548,59.7450667 369.193548,68.4666667 C369.193548,77.1882667 362.105032,84.2666667 353.370968,84.2666667 L296.736677,84.2666667 C281.430968,84.2666667 267.317226,94.5050667 264.342581,109.494 C260.344742,129.633733 275.861419,147.466667 295.354839,147.466667 L305.903226,147.466667 C317.559194,147.466667 327,156.894 327,168.533333 C327,180.172667 317.559194,189.6 305.903226,189.6 L247.887097,189.6 C231.051871,189.6 217.771452,205.568533 222.476032,223.085467 C225.587806,234.672133 230.59829,273.866667 242.612903,273.866667 L390.290323,263.333333 C401.94629,263.333333 411.387097,251.694 411.387097,263.333333 C411.387097,265.4716 410.97571,267.504533 410.374452,269.442667 L189.870968,347.6 L27.8793871,347.6 C14.0820968,347.6 1.51896774,357.511867 0.137129032,371.215733 C-1.44512903,386.984133 10.9070323,400.266667 26.3709677,400.266667 L56.5077097,400.266667 C70.305,400.266667 82.868129,410.178533 84.2499677,423.8824 C85.8322258,439.6508 73.4800645,452.933333 58.016129,452.933333 L54.5351613,452.933333 C37.4045806,452.933333 22.0355806,465.741867 21.1389677,482.837467 C20.1896129,501.060133 34.7041935,516.133333 52.7419355,516.133333 L161.991581,516.133333 C175.788871,516.133333 188.352,526.0452 189.733839,539.749067 C191.316097,555.517467 178.963935,568.8 163.5,568.8 L117.825484,568.8 C100.694903,568.8 85.3259032,581.608533 84.4292903,598.704133 C83.4799355,616.9268 97.9945161,632 116.032258,632 L515.077742,632 C532.208323,632 547.577323,619.191467 548.463387,602.095867 C549.42329,583.8732 534.90871,568.8 516.870968,568.8 L513.105194,568.8 C499.307903,568.8 486.744774,558.888133 485.362935,545.184267 C483.780677,529.415867 496.132839,516.133333 511.596774,516.133333 L567.819677,516.133333 C584.950258,516.133333 600.319258,503.3248 601.205323,486.2292 C602.165226,468.006533 587.650645,452.933333 569.612903,452.933333 L474.677419,452.933333 L474.677419,358.133333 L480.879871,358.133333 C497.715097,358.133333 510.995516,321.098133 506.290935,303.5812 C503.179161,291.994533 491.966226,284.4 479.951613,284.4 L474.677419,284.4 L474.677419,273.866667 L580.16129,273.866667 C603.367742,273.866667 622.354839,254.906667 622.354839,231.733333 C622.354839,208.56 603.367742,189.6 580.16129,189.6 L569.612903,189.6 L564.33871,189.6 C555.604645,189.6 548.516129,182.5216 548.516129,173.8 C548.516129,165.0784 555.604645,158 564.33871,158 L617.080645,158 C633.915871,158 647.19629,142.031467 642.49171,124.514533 C639.379935,112.927867 628.167,105.333333 616.152387,105.333333 Z" id="Shape"></path>
                        <ellipse id="Oval" cx="627.629032" cy="26.3333333" rx="26.3709677" ry="26.3333333"></ellipse>
                        <ellipse id="Oval" cx="210.967742" cy="242.266667" rx="21.0967742" ry="21.0666667"></ellipse>
                        <ellipse id="Oval" cx="105.483871" cy="115.866667" rx="31.6451613" ry="31.6"></ellipse>
                    </g>
                </g>
            </g>
        </g>
    </g>
</svg>