<?xml version="1.0" encoding="UTF-8"?>
<svg width="179px" height="142px" viewBox="0 0 179 142" version="1.1" xmlns="http://www.w3.org/2000/svg" xmlns:xlink="http://www.w3.org/1999/xlink">
    <!-- Generator: Sketch 50.2 (55047) - http://www.bohemiancoding.com/sketch -->
    <title>discussion</title>
    <desc>Created with Sketch.</desc>
    <defs></defs>
    <g id="Page-1" stroke="none" stroke-width="1" fill="none" fill-rule="evenodd">
        <g id="1-Home" transform="translate(-871.000000, -4110.000000)" fill-rule="nonzero">
            <g id="Section-4" transform="translate(0.000000, 3713.000000)">
                <g id="discussion" transform="translate(871.000000, 397.000000)">
                    <path d="M163.583304,0 L83.4166958,0 C74.9035976,0 68,6.87695208 68,15.3571926 L68,58.3571926 C68,66.837433 74.9035976,73.7143851 83.4166958,73.7143851 L151.250087,73.7143851 L163.583304,86 L163.583304,73.7143851 C172.096402,73.7143851 179,66.837433 179,58.3571926 L179,15.3568446 C179,6.87660415 172.096402,0 163.583304,0 Z" id="Shape" fill="#4DB5FF"></path>
                    <path d="M161.690729,28.5074841 L163.564554,28.5074841 L163.564554,34.6645726 L154.191584,34.6645726 C151.450092,36.7919156 148.656142,38.8543921 145.788051,40.8216612 L163.564204,40.8216612 L163.564204,46.9787498 L136.143345,46.9787498 C132.457247,49.1674719 128.684767,51.218091 124.825556,53.1358384 L138.866301,53.1358384 L138.866301,59.292927 L114.168397,59.292927 L114.168397,58.0430258 C100.658535,63.6829259 86.4915396,67.6049094 72,69.7169076 C74.902015,72.8786275 78.9986893,74.6795454 83.2961056,74.6858228 L151.215077,74.6858228 L163.563854,87 L163.563854,74.6858228 C172.087693,74.6858228 179,67.7928828 179,59.292927 L179,16.1929581 C178.978317,14.770777 178.75904,13.360802 178.345665,12 C173.165894,17.8648405 167.602824,23.378495 161.690729,28.5074841 Z M163.564554,59.2932757 L145.041039,59.2932757 L145.041039,53.1361872 L163.564554,53.1361872 L163.564554,59.2932757 Z" id="Shape" fill="#3596D8"></path>
                    <g id="Group" transform="translate(83.000000, 16.000000)" fill="#235087">
                        <rect id="Rectangle-path" x="0.12" y="24.5252581" width="79.832" height="6.12229839"></rect>
                        <rect id="Rectangle-path" x="30.8246957" y="36.7698548" width="24.5638261" height="6.12229839"></rect>
                        <rect id="Rectangle-path" x="61.5293913" y="36.7698548" width="18.4229565" height="6.12229839"></rect>
                        <rect id="Rectangle-path" x="67.6702609" y="12.2806613" width="12.2817391" height="6.12229839"></rect>
                        <rect id="Rectangle-path" x="0.12" y="0.0357177419" width="55.2685217" height="6.12229839"></rect>
                        <rect id="Rectangle-path" x="61.5293913" y="0.0357177419" width="18.4229565" height="6.12229839"></rect>
                        <rect id="Rectangle-path" x="0.12" y="12.2806613" width="18.4229565" height="6.12229839"></rect>
                        <rect id="Rectangle-path" x="24.6838261" y="12.2806613" width="36.8455652" height="6.12229839"></rect>
                    </g>
                    <path d="M15.4166958,56 L95.5833042,56 C104.096402,56 111,62.8769521 111,71.3571926 L111,114.357193 C111,122.837433 104.096402,129.714385 95.5833042,129.714385 L27.7499127,129.714385 L15.4166958,142 L15.4166958,129.714385 C6.90359762,129.714385 0,122.837433 0,114.357193 L0,71.3571926 C0,62.8769521 6.90359762,56 15.4166958,56 Z" id="Shape" fill="#FFA511"></path>
                    <path d="M4,123.39598 C6.89241945,126.788966 11.138678,128.749898 15.6125517,128.762374 L15.6125517,141 L27.9204971,128.762374 L95.614894,128.762374 C104.110548,128.762374 111,121.912285 111,113.465169 L111,70.6327862 C110.9878,68.3322096 110.446125,66.0621318 109.418546,64 C82.5069844,95.6407259 45.1272209,116.69873 4,123.39598 Z" id="Shape" fill="#F08015"></path>
                    <g id="Group" transform="translate(24.000000, 86.000000)" fill="#FFFFFF">
                        <ellipse id="Oval" cx="55.5621011" cy="6.42525" rx="6.14949438" ry="6.37541667"></ellipse>
                        <ellipse id="Oval" cx="6.36579775" cy="6.42525" rx="6.14949438" ry="6.37541667"></ellipse>
                        <ellipse id="Oval" cx="30.9641236" cy="6.42525" rx="6.14949438" ry="6.37541667"></ellipse>
                    </g>
                    <path d="M75,94.9941425 C76.740182,97.8376121 80.6544985,98.8395102 83.739168,97.2357343 C86.8238374,95.6319583 87.9107224,92.0233785 86.1709047,89.1799089 C85.9071083,88.7499962 85.5886579,88.3556856 85.2188328,88 C81.8991514,90.4310221 78.4993108,92.7733746 75,94.9941425 Z" id="Shape" fill="#DDD9D4"></path>
                    <g id="Group" transform="translate(114.000000, 28.000000)" fill="#173A60">
                        <path d="M49.9514085,18.5926854 L49.9514085,12.443191 L32.0538732,12.443191 C28.8894366,14.595427 25.6538732,16.6463034 22.343662,18.5926854 L49.9514085,18.5926854 Z" id="Shape"></path>
                        <path d="M0.218661972,30.8920225 L25.0852113,30.8920225 L25.0852113,24.7425281 L10.9485915,24.7425281 C7.43309859,26.4827079 3.86478873,28.1246629 0.218661972,29.6436629 L0.218661972,30.8920225 Z" id="Shape"></path>
                        <rect id="Rectangle-path" x="31.3017606" y="24.7421798" width="18.65" height="6.14949438"></rect>
                        <path d="M49.9514085,6.29369663 L49.9514085,0.144202247 L48.0647887,0.144202247 C45.6059859,2.25951685 43.0883803,4.31039326 40.5147887,6.29369663 L49.9514085,6.29369663 Z" id="Shape"></path>
                    </g>
                </g>
            </g>
        </g>
    </g>
</svg>