<?xml version="1.0" encoding="UTF-8"?>
<svg width="961px" height="959px" viewBox="0 0 961 959" version="1.1" xmlns="http://www.w3.org/2000/svg" xmlns:xlink="http://www.w3.org/1999/xlink">
    <!-- Generator: Sketch 50.2 (55047) - http://www.bohemiancoding.com/sketch -->
    <title>Group</title>
    <desc>Created with Sketch.</desc>
    <defs>
        <linearGradient x1="15.3884151%" y1="-11.78125%" x2="83.1348794%" y2="72.0546875%" id="linearGradient-1">
            <stop stop-color="#285199" stop-opacity="0.273012908" offset="0%"></stop>
            <stop stop-color="#50E3C2" offset="100%"></stop>
        </linearGradient>
    </defs>
    <g id="Page-1" stroke="none" stroke-width="1" fill="none" fill-rule="evenodd">
        <g id="2-Pricing" transform="translate(-873.000000, -180.000000)">
            <g id="Section-1">
                <g id="Group-3" transform="translate(810.000000, 176.000000)">
                    <g id="Group" transform="translate(543.500000, 483.500000) scale(1, -1) translate(-543.500000, -483.500000) translate(60.000000, 0.000000)">
                        <circle id="Oval-4" fill="#439EB1" cx="498" cy="496" r="96"></circle>
                        <g id="original_Oval-8_87640717-Group" stroke="url(#linearGradient-1)" stroke-width="5">
                            <ellipse id="duplicate_50_original_Oval-8_87640717" transform="translate(483.500000, 483.500000) rotate(196.000000) translate(-483.500000, -483.500000) " cx="483.5" cy="483.5" rx="477.117162" ry="73.4638158"></ellipse>
                            <ellipse id="duplicate_49_original_Oval-8_87640717" transform="translate(483.500000, 483.500000) rotate(192.000000) translate(-483.500000, -483.500000) " cx="483.5" cy="483.5" rx="477.117162" ry="73.4638158"></ellipse>
                            <ellipse id="duplicate_48_original_Oval-8_87640717" transform="translate(483.500000, 483.500000) rotate(188.000000) translate(-483.500000, -483.500000) " cx="483.5" cy="483.5" rx="477.117162" ry="73.4638158"></ellipse>
                            <ellipse id="duplicate_47_original_Oval-8_87640717" transform="translate(483.500000, 483.500000) rotate(184.000000) translate(-483.500000, -483.500000) " cx="483.5" cy="483.5" rx="477.117162" ry="73.4638158"></ellipse>
                            <ellipse id="duplicate_46_original_Oval-8_87640717" transform="translate(483.500000, 483.500000) rotate(180.000000) translate(-483.500000, -483.500000) " cx="483.5" cy="483.5" rx="477.117162" ry="73.4638158"></ellipse>
                            <ellipse id="duplicate_45_original_Oval-8_87640717" transform="translate(483.500000, 483.500000) rotate(176.000000) translate(-483.500000, -483.500000) " cx="483.5" cy="483.5" rx="477.117162" ry="73.4638158"></ellipse>
                            <ellipse id="duplicate_44_original_Oval-8_87640717" transform="translate(483.500000, 483.500000) rotate(172.000000) translate(-483.500000, -483.500000) " cx="483.5" cy="483.5" rx="477.117162" ry="73.4638158"></ellipse>
                            <ellipse id="duplicate_43_original_Oval-8_87640717" transform="translate(483.500000, 483.500000) rotate(168.000000) translate(-483.500000, -483.500000) " cx="483.5" cy="483.5" rx="477.117162" ry="73.4638158"></ellipse>
                            <ellipse id="duplicate_42_original_Oval-8_87640717" transform="translate(483.500000, 483.500000) rotate(164.000000) translate(-483.500000, -483.500000) " cx="483.5" cy="483.5" rx="477.117162" ry="73.4638158"></ellipse>
                            <ellipse id="duplicate_41_original_Oval-8_87640717" transform="translate(483.500000, 483.500000) rotate(160.000000) translate(-483.500000, -483.500000) " cx="483.5" cy="483.5" rx="477.117162" ry="73.4638158"></ellipse>
                            <ellipse id="duplicate_40_original_Oval-8_87640717" transform="translate(483.500000, 483.500000) rotate(156.000000) translate(-483.500000, -483.500000) " cx="483.5" cy="483.5" rx="477.117162" ry="73.4638158"></ellipse>
                            <ellipse id="duplicate_39_original_Oval-8_87640717" transform="translate(483.500000, 483.500000) rotate(152.000000) translate(-483.500000, -483.500000) " cx="483.5" cy="483.5" rx="477.117162" ry="73.4638158"></ellipse>
                            <ellipse id="duplicate_38_original_Oval-8_87640717" transform="translate(483.500000, 483.500000) rotate(148.000000) translate(-483.500000, -483.500000) " cx="483.5" cy="483.5" rx="477.117162" ry="73.4638158"></ellipse>
                            <ellipse id="duplicate_37_original_Oval-8_87640717" transform="translate(483.500000, 483.500000) rotate(144.000000) translate(-483.500000, -483.500000) " cx="483.5" cy="483.5" rx="477.117162" ry="73.4638158"></ellipse>
                            <ellipse id="duplicate_36_original_Oval-8_87640717" transform="translate(483.500000, 483.500000) rotate(140.000000) translate(-483.500000, -483.500000) " cx="483.5" cy="483.5" rx="477.117162" ry="73.4638158"></ellipse>
                            <ellipse id="duplicate_35_original_Oval-8_87640717" transform="translate(483.500000, 483.500000) rotate(136.000000) translate(-483.500000, -483.500000) " cx="483.5" cy="483.5" rx="477.117162" ry="73.4638158"></ellipse>
                            <ellipse id="duplicate_34_original_Oval-8_87640717" transform="translate(483.500000, 483.500000) rotate(132.000000) translate(-483.500000, -483.500000) " cx="483.5" cy="483.5" rx="477.117162" ry="73.4638158"></ellipse>
                            <ellipse id="duplicate_33_original_Oval-8_87640717" transform="translate(483.500000, 483.500000) rotate(128.000000) translate(-483.500000, -483.500000) " cx="483.5" cy="483.5" rx="477.117162" ry="73.4638158"></ellipse>
                            <ellipse id="duplicate_32_original_Oval-8_87640717" transform="translate(483.500000, 483.500000) rotate(124.000000) translate(-483.500000, -483.500000) " cx="483.5" cy="483.5" rx="477.117162" ry="73.4638158"></ellipse>
                            <ellipse id="duplicate_31_original_Oval-8_87640717" transform="translate(483.500000, 483.500000) rotate(120.000000) translate(-483.500000, -483.500000) " cx="483.5" cy="483.5" rx="477.117162" ry="73.4638158"></ellipse>
                            <ellipse id="duplicate_30_original_Oval-8_87640717" transform="translate(483.500000, 483.500000) rotate(116.000000) translate(-483.500000, -483.500000) " cx="483.5" cy="483.5" rx="477.117162" ry="73.4638158"></ellipse>
                            <ellipse id="duplicate_29_original_Oval-8_87640717" transform="translate(483.500000, 483.500000) rotate(112.000000) translate(-483.500000, -483.500000) " cx="483.5" cy="483.5" rx="477.117162" ry="73.4638158"></ellipse>
                            <ellipse id="duplicate_28_original_Oval-8_87640717" transform="translate(483.500000, 483.500000) rotate(108.000000) translate(-483.500000, -483.500000) " cx="483.5" cy="483.5" rx="477.117162" ry="73.4638158"></ellipse>
                            <ellipse id="duplicate_27_original_Oval-8_87640717" transform="translate(483.500000, 483.500000) rotate(104.000000) translate(-483.500000, -483.500000) " cx="483.5" cy="483.5" rx="477.117162" ry="73.4638158"></ellipse>
                            <ellipse id="duplicate_26_original_Oval-8_87640717" transform="translate(483.500000, 483.500000) rotate(100.000000) translate(-483.500000, -483.500000) " cx="483.5" cy="483.5" rx="477.117162" ry="73.4638158"></ellipse>
                            <ellipse id="duplicate_25_original_Oval-8_87640717" transform="translate(483.500000, 483.500000) rotate(96.000000) translate(-483.500000, -483.500000) " cx="483.5" cy="483.5" rx="477.117162" ry="73.4638158"></ellipse>
                            <ellipse id="duplicate_24_original_Oval-8_87640717" transform="translate(483.500000, 483.500000) rotate(92.000000) translate(-483.500000, -483.500000) " cx="483.5" cy="483.5" rx="477.117162" ry="73.4638158"></ellipse>
                            <ellipse id="duplicate_23_original_Oval-8_87640717" transform="translate(483.500000, 483.500000) rotate(88.000000) translate(-483.500000, -483.500000) " cx="483.5" cy="483.5" rx="477.117162" ry="73.4638158"></ellipse>
                            <ellipse id="duplicate_22_original_Oval-8_87640717" transform="translate(483.500000, 483.500000) rotate(84.000000) translate(-483.500000, -483.500000) " cx="483.5" cy="483.5" rx="477.117162" ry="73.4638158"></ellipse>
                            <ellipse id="duplicate_21_original_Oval-8_87640717" transform="translate(483.500000, 483.500000) rotate(80.000000) translate(-483.500000, -483.500000) " cx="483.5" cy="483.5" rx="477.117162" ry="73.4638158"></ellipse>
                            <ellipse id="duplicate_20_original_Oval-8_87640717" transform="translate(483.500000, 483.500000) rotate(76.000000) translate(-483.500000, -483.500000) " cx="483.5" cy="483.5" rx="477.117162" ry="73.4638158"></ellipse>
                            <ellipse id="duplicate_19_original_Oval-8_87640717" transform="translate(483.500000, 483.500000) rotate(72.000000) translate(-483.500000, -483.500000) " cx="483.5" cy="483.5" rx="477.117162" ry="73.4638158"></ellipse>
                            <ellipse id="duplicate_18_original_Oval-8_87640717" transform="translate(483.500000, 483.500000) rotate(68.000000) translate(-483.500000, -483.500000) " cx="483.5" cy="483.5" rx="477.117162" ry="73.4638158"></ellipse>
                            <ellipse id="duplicate_17_original_Oval-8_87640717" transform="translate(483.500000, 483.500000) rotate(64.000000) translate(-483.500000, -483.500000) " cx="483.5" cy="483.5" rx="477.117162" ry="73.4638158"></ellipse>
                            <ellipse id="duplicate_16_original_Oval-8_87640717" transform="translate(483.500000, 483.500000) rotate(60.000000) translate(-483.500000, -483.500000) " cx="483.5" cy="483.5" rx="477.117162" ry="73.4638158"></ellipse>
                            <ellipse id="duplicate_15_original_Oval-8_87640717" transform="translate(483.500000, 483.500000) rotate(56.000000) translate(-483.500000, -483.500000) " cx="483.5" cy="483.5" rx="477.117162" ry="73.4638158"></ellipse>
                            <ellipse id="duplicate_14_original_Oval-8_87640717" transform="translate(483.500000, 483.500000) rotate(52.000000) translate(-483.500000, -483.500000) " cx="483.5" cy="483.5" rx="477.117162" ry="73.4638158"></ellipse>
                            <ellipse id="duplicate_13_original_Oval-8_87640717" transform="translate(483.500000, 483.500000) rotate(48.000000) translate(-483.500000, -483.500000) " cx="483.5" cy="483.5" rx="477.117162" ry="73.4638158"></ellipse>
                            <ellipse id="duplicate_12_original_Oval-8_87640717" transform="translate(483.500000, 483.500000) rotate(44.000000) translate(-483.500000, -483.500000) " cx="483.5" cy="483.5" rx="477.117162" ry="73.4638158"></ellipse>
                            <ellipse id="duplicate_11_original_Oval-8_87640717" transform="translate(483.500000, 483.500000) rotate(40.000000) translate(-483.500000, -483.500000) " cx="483.5" cy="483.5" rx="477.117162" ry="73.4638158"></ellipse>
                            <ellipse id="duplicate_10_original_Oval-8_87640717" transform="translate(483.500000, 483.500000) rotate(36.000000) translate(-483.500000, -483.500000) " cx="483.5" cy="483.5" rx="477.117162" ry="73.4638158"></ellipse>
                            <ellipse id="duplicate_9_original_Oval-8_87640717" transform="translate(483.500000, 483.500000) rotate(32.000000) translate(-483.500000, -483.500000) " cx="483.5" cy="483.5" rx="477.117162" ry="73.4638158"></ellipse>
                            <ellipse id="duplicate_8_original_Oval-8_87640717" transform="translate(483.500000, 483.500000) rotate(28.000000) translate(-483.500000, -483.500000) " cx="483.5" cy="483.5" rx="477.117162" ry="73.4638158"></ellipse>
                            <ellipse id="duplicate_7_original_Oval-8_87640717" transform="translate(483.500000, 483.500000) rotate(24.000000) translate(-483.500000, -483.500000) " cx="483.5" cy="483.5" rx="477.117162" ry="73.4638158"></ellipse>
                            <ellipse id="duplicate_6_original_Oval-8_87640717" transform="translate(483.500000, 483.500000) rotate(20.000000) translate(-483.500000, -483.500000) " cx="483.5" cy="483.5" rx="477.117162" ry="73.4638158"></ellipse>
                            <ellipse id="duplicate_5_original_Oval-8_87640717" transform="translate(483.500000, 483.500000) rotate(16.000000) translate(-483.500000, -483.500000) " cx="483.5" cy="483.5" rx="477.117162" ry="73.4638158"></ellipse>
                            <ellipse id="duplicate_4_original_Oval-8_87640717" transform="translate(483.500000, 483.500000) rotate(12.000000) translate(-483.500000, -483.500000) " cx="483.5" cy="483.5" rx="477.117162" ry="73.4638158"></ellipse>
                            <ellipse id="duplicate_3_original_Oval-8_87640717" transform="translate(483.500000, 483.500000) rotate(8.000000) translate(-483.500000, -483.500000) " cx="483.5" cy="483.5" rx="477.117162" ry="73.4638158"></ellipse>
                            <ellipse id="duplicate_2_original_Oval-8_87640717" transform="translate(483.500000, 483.500000) rotate(4.000000) translate(-483.500000, -483.500000) " cx="483.5" cy="483.5" rx="477.117162" ry="73.4638158"></ellipse>
                            <ellipse id="duplicate_1_original_Oval-8_87640717" cx="483.5" cy="483.5" rx="477.117162" ry="73.4638158"></ellipse>
                        </g>
                    </g>
                </g>
            </g>
        </g>
    </g>
</svg>