<?xml version="1.0" encoding="UTF-8"?>
<svg width="426px" height="477px" viewBox="0 0 426 477" version="1.1" xmlns="http://www.w3.org/2000/svg" xmlns:xlink="http://www.w3.org/1999/xlink">
    <!-- Generator: Sketch 50.2 (55047) - http://www.bohemiancoding.com/sketch -->
    <title>Group 11</title>
    <desc>Created with Sketch.</desc>
    <defs>
        <rect id="path-1" x="0" y="0" width="420" height="466.9" rx="22.4"></rect>
        <filter x="-1.9%" y="-1.1%" width="103.8%" height="104.3%" filterUnits="objectBoundingBox" id="filter-2">
            <feOffset dx="0" dy="7" in="SourceAlpha" result="shadowOffsetOuter1"></feOffset>
            <feGaussianBlur stdDeviation="1.5" in="shadowOffsetOuter1" result="shadowBlurOuter1"></feGaussianBlur>
            <feComposite in="shadowBlurOuter1" in2="SourceAlpha" operator="out" result="shadowBlurOuter1"></feComposite>
            <feColorMatrix values="0 0 0 0 0.109803922   0 0 0 0 0.176470588   0 0 0 0 0.254901961  0 0 0 0.0793138587 0" type="matrix" in="shadowBlurOuter1"></feColorMatrix>
        </filter>
    </defs>
    <g id="Page-1" stroke="none" stroke-width="1" fill="none" fill-rule="evenodd">
        <g id="1-Home" transform="translate(-1156.000000, -3022.000000)">
            <g id="Section-4" transform="translate(264.000000, 2914.000000)">
                <g id="Group-10" transform="translate(764.000000, 71.000000)">
                    <g id="Group-2" transform="translate(8.000000, 0.000000)">
                        <g id="Group-11" transform="translate(123.000000, 37.000000)">
                            <g id="Rectangle-2">
                                <use fill="black" fill-opacity="1" filter="url(#filter-2)" xlink:href="#path-1"></use>
                                <rect stroke-opacity="0.0900701993" stroke="#6A6E74" stroke-width="1.4" stroke-linejoin="square" fill="#FFFFFF" fill-rule="evenodd" x="0.7" y="0.7" width="418.6" height="465.5" rx="22.4"></rect>
                            </g>
                            <g id="Category-Copy" transform="translate(108.500000, 24.500000)">
                                <text id="Criminal-Education" font-family="CircularStd-Bold, Circular Std" font-size="21" font-weight="bold" letter-spacing="0.875" fill="#304D66">
                                    <tspan x="0.5355" y="198.1">Criminal Litigation</tspan>
                                </text>
                                <g id="Group-4" transform="translate(25.200000, 0.000000)">
                                    <circle id="Oval-3-Copy" fill="#1C2D41" cx="76.65" cy="76.65" r="76.65"></circle>
                                    <path d="M54.6,84.6972 C48.4246,84.6972 43.4,89.7218 43.4,95.8972 C43.4,102.0726 48.4246,107.0972 54.6,107.0972 C60.7754,107.0972 65.8,102.0726 65.8,95.8972 C65.8,89.7218 60.7754,84.6972 54.6,84.6972 Z M54.6,104.2972 C49.9674,104.2972 46.2,100.5298 46.2,95.8972 C46.2,91.2646 49.9674,87.4972 54.6,87.4972 C59.2326,87.4972 63,91.2646 63,95.8972 C63,100.5298 59.2326,104.2972 54.6,104.2972 Z" id="Shape" fill="#FFFFFF" fill-rule="nonzero"></path>
                                    <path d="M53.2,73.4972 L53.2,76.2972 C53.2,77.07 53.8258,77.6972 54.6,77.6972 C55.3742,77.6972 56,77.07 56,76.2972 L56,73.4972 C56,72.7244 55.3742,72.0972 54.6,72.0972 C53.8258,72.0972 53.2,72.7244 53.2,73.4972 Z" id="Shape" fill="#FFFFFF" fill-rule="nonzero"></path>
                                    <path d="M116.879,67.2168 C112.9156,63.2534 107.4514,61.705 102.3008,62.538 L95.1006,55.3378 C93.52,53.7586 90.8222,53.676 89.3312,55.1684 L87.9984,56.5012 L87.7156,52.4006 C87.7142,52.381 87.703,52.3656 87.7002,52.346 C89.4068,50.8354 89.6028,48.223 88.1174,46.48 L83.5758,41.153 C82.0778,39.3932 79.4206,39.1804 77.6552,40.6826 C77.5978,40.7316 77.5558,40.7918 77.5012,40.8436 L73.0408,40.488 C72.6362,39.8356 72.0678,39.298 71.3622,38.9438 C70.357,38.4398 69.2202,38.3572 68.1576,38.71 L61.5146,40.9164 C59.64,41.5394 58.5074,43.3664 58.6642,45.2536 L55.286,48.2202 C55.2118,48.2118 55.1404,48.1894 55.0662,48.1838 C52.7842,48.0522 50.7556,49.791 50.603,52.1038 L50.1508,59.0898 C50.022,61.1002 51.3366,62.874 53.2,63.4004 L53.2,67.8972 L48.7592,67.8972 C46.613,67.8972 44.8,69.8208 44.8,72.0972 L44.8,82.2794 C40.5692,85.3328 37.8,90.293 37.8,95.8972 C37.8,105.161 45.3362,112.6972 54.6,112.6972 C63.8638,112.6972 71.4,105.161 71.4,95.8972 C71.4,90.293 68.6308,85.3328 64.4,82.2794 L64.4,72.0972 C64.4,69.8208 62.587,67.8972 60.4408,67.8972 L56,67.8972 L56,63.2058 C56.3976,63.0336 56.7756,62.8096 57.1116,62.5142 C57.9572,61.7722 58.4612,60.7488 58.534,59.6316 L58.9848,52.647 C59.0576,51.5312 58.688,50.4532 57.9488,49.6076 L59.9102,47.8856 C60.2182,48.1866 60.5612,48.454 60.9574,48.6528 C61.5524,48.951 62.195,49.1022 62.8404,49.1022 C63.2842,49.1022 63.7294,49.0308 64.162,48.888 L70.805,46.6816 C72.3436,46.1706 73.3726,44.8434 73.612,43.3426 L76.195,43.5484 C76.111,44.6194 76.433,45.7226 77.1834,46.6032 L81.725,51.9302 C82.5552,52.9032 83.7368,53.403 84.924,53.403 C84.9408,53.403 84.9576,53.3988 84.9758,53.3988 L85.3706,59.1276 L81.0712,63.427 C79.5536,64.9446 79.632,67.5878 81.2406,69.1964 L88.4408,76.3966 C87.6078,81.5472 89.1562,87.0128 93.1196,90.9762 C96.3956,94.2508 100.6964,95.8888 104.9986,95.8888 C109.3008,95.8888 113.603,94.2522 116.8776,90.9762 C123.4296,84.4256 123.4296,73.7674 116.879,67.2168 Z M68.6,95.8972 C68.6,103.6168 62.3196,109.8972 54.6,109.8972 C46.8804,109.8972 40.6,103.6168 40.6,95.8972 C40.6,88.1776 46.8804,81.8972 54.6,81.8972 C55.0942,81.8972 55.5856,81.9238 56.0728,81.9756 C56.1484,81.984 56.2226,82.0008 56.2982,82.0106 C56.714,82.0624 57.1284,82.124 57.5386,82.2136 C57.589,82.2248 57.6366,82.2402 57.6856,82.2514 C58.1224,82.3508 58.5564,82.467 58.9834,82.6098 C59.0086,82.6182 59.0338,82.6294 59.059,82.6378 C59.5014,82.7876 59.9382,82.9598 60.3694,83.1558 C65.2162,85.3594 68.6,90.2356 68.6,95.8972 Z M61.6,72.0972 L61.6,80.4972 L61.2948,80.4972 C59.2424,79.6012 56.98,79.0972 54.6,79.0972 C52.619,79.0972 49.7644,79.45 47.6,80.115 L47.6,72.0972 C47.6,71.4042 48.1852,70.6972 48.7592,70.6972 L60.4408,70.6972 C61.0148,70.6972 61.6,71.4042 61.6,72.0972 Z M55.7382,59.451 C55.7144,59.822 55.545,60.1622 55.2622,60.4114 C54.9808,60.6592 54.635,60.7824 54.25,60.7586 C53.48,60.7096 52.8934,60.0418 52.9424,59.2704 L53.3946,52.2858 C53.4422,51.5452 54.0596,50.9754 54.7904,50.9754 C54.8198,50.9754 54.852,50.9768 54.8814,50.9782 C55.2524,51.002 55.5912,51.17 55.8404,51.4528 C56.0882,51.7356 56.2128,52.094 56.1876,52.465 L55.7382,59.451 Z M70.7294,43.323 C70.56,43.659 70.2744,43.9082 69.9216,44.0244 L63.2786,46.2308 C62.9286,46.3498 62.5478,46.319 62.2118,46.151 C61.8758,45.983 61.6252,45.696 61.509,45.3446 C61.509,45.3446 61.509,45.3446 61.509,45.3432 C61.3914,44.9918 61.4208,44.6124 61.5888,44.2764 C61.7582,43.9404 62.0438,43.6912 62.3966,43.575 L69.0396,41.3686 C69.1824,41.321 69.3294,41.2972 69.4764,41.2972 C69.692,41.2972 69.9076,41.3476 70.1064,41.4484 C70.427,41.608 70.6608,41.881 70.7826,42.21 C70.7924,42.2436 70.8022,42.2758 70.8148,42.308 C70.9142,42.6454 70.8904,43.0024 70.7294,43.323 Z M83.8544,50.113 L79.3128,44.786 C78.813,44.1994 78.883,43.3132 79.4696,42.812 C79.7328,42.588 80.0562,42.4774 80.3768,42.4774 C80.7716,42.4774 81.1664,42.644 81.4436,42.9688 L85.9852,48.2958 C86.485,48.8824 86.415,49.7686 85.827,50.2698 C85.2432,50.7696 84.3584,50.7024 83.8544,50.113 Z M88.8902,72.8868 L83.2202,67.2182 C82.7302,66.7282 82.6448,65.814 83.0508,65.408 L91.3094,57.1494 C91.5264,56.9324 91.8316,56.889 92.0388,56.889 C92.071,56.889 92.1032,56.889 92.1298,56.8918 C92.505,56.9142 92.8746,57.0738 93.1196,57.3188 L99.0584,63.259 L98.8414,63.476 C96.7568,64.2936 94.8024,65.5368 93.1196,67.2182 C91.7196,68.6182 89.9514,70.8876 88.8902,72.8868 Z M114.8994,88.9966 C109.4394,94.4538 100.5578,94.4552 95.0992,88.9966 C89.6406,83.538 89.6406,74.655 95.0992,69.1964 C95.4492,68.8464 95.816,68.5174 96.1982,68.2094 C96.25,68.1674 96.306,68.1324 96.3578,68.0918 C96.6952,67.8272 97.041,67.5724 97.4008,67.3414 C97.44,67.3162 97.4806,67.2966 97.5184,67.2714 C97.9006,67.0306 98.294,66.8038 98.7014,66.6008 C98.7252,66.5882 98.7504,66.5784 98.7742,66.5672 C99.1914,66.3614 99.6212,66.1752 100.0622,66.0086 C101.6498,65.4122 103.3214,65.1028 104.9972,65.1028 C108.5826,65.1028 112.168,66.4678 114.8966,69.1964 C120.3594,74.655 120.3594,83.538 114.8994,88.9966 Z" id="Shape" fill="#FFFFFF" fill-rule="nonzero"></path>
                                    <path d="M112.9198,71.1774 C108.5532,66.8108 101.4468,66.8108 97.0802,71.1774 C92.715,75.544 92.715,82.649 97.0802,87.0156 C99.2642,89.1996 102.1314,90.2902 105,90.2902 C107.8686,90.2902 110.7372,89.1982 112.9198,87.0156 C117.285,82.6504 117.285,75.5454 112.9198,71.1774 Z M110.9402,85.036 C107.6628,88.312 102.3344,88.3078 99.0598,85.036 C95.7852,81.76 95.7852,76.4316 99.0598,73.157 C100.6978,71.519 102.8496,70.7014 105,70.7014 C107.1518,70.7014 109.3022,71.5204 110.9402,73.157 C114.2148,76.433 114.2148,81.7614 110.9402,85.036 Z" id="Shape" fill="#FFFFFF" fill-rule="nonzero"></path>
                                    <path d="M90.1516,62.2678 C89.6042,61.7204 88.7194,61.7204 88.172,62.2678 C87.6246,62.8152 87.6246,63.7 88.172,64.2474 L90.1516,66.227 C90.4246,66.5 90.783,66.6372 91.1414,66.6372 C91.4998,66.6372 91.8582,66.5 92.1312,66.227 C92.6786,65.6796 92.6786,64.7948 92.1312,64.2474 L90.1516,62.2678 Z" id="Shape" fill="#FFFFFF" fill-rule="nonzero"></path>
                                </g>
                            </g>
                            <g id="dropdown" transform="translate(90.300000, 270.900000)">
                                <rect id="Rectangle-2-Copy-3" stroke-opacity="0.326964447" stroke="#1C2D41" stroke-width="0.7" x="51.45" y="0.35" width="137.2" height="48.3" rx="12.6"></rect>
                                <text id="40:00-min" font-family="CircularStd-Book, Circular Std" font-size="16.8" font-weight="300" letter-spacing="0.7" fill="#304D66">
                                    <tspan x="67.2" y="30.3">40:00 min</tspan>
                                </text>
                                <text id="Time:" font-family="CircularStd-Book, Circular Std" font-size="16.8" font-weight="300" letter-spacing="0.7" fill="#304D66" fill-opacity="0.33">
                                    <tspan x="0" y="30.3">Time:</tspan>
                                </text>
                                <g id="ic_down" opacity="0.397758152" transform="translate(158.200000, 25.200000)" stroke="#000000" stroke-linecap="round" stroke-linejoin="round">
                                    <g transform="translate(8.400000, 8.400000) rotate(-90.000000) translate(-8.400000, -8.400000) " id="ic_back">
                                        <g stroke-width="1.4">
                                            <g id="back" transform="translate(5.600000, 2.800000)">
                                                <path d="M5.6,0 L0,5.6" id="Line"></path>
                                                <path d="M0,5.6 L5.6,11.2" id="Line"></path>
                                            </g>
                                        </g>
                                    </g>
                                </g>
                                <g id="ic_down" opacity="0.397758152" transform="translate(166.600000, 16.100000) scale(1, -1) translate(-166.600000, -16.100000) translate(158.200000, 7.700000)" stroke="#000000" stroke-linecap="round" stroke-linejoin="round">
                                    <g transform="translate(8.400000, 8.400000) rotate(-90.000000) translate(-8.400000, -8.400000) " id="ic_back">
                                        <g stroke-width="1.4">
                                            <g id="back" transform="translate(5.600000, 2.800000)">
                                                <path d="M5.6,0 L0,5.6" id="Line"></path>
                                                <path d="M0,5.6 L5.6,11.2" id="Line"></path>
                                            </g>
                                        </g>
                                    </g>
                                </g>
                            </g>
                            <g id="dropdown-copy" transform="translate(61.000000, 380.000000)">
                                <g id="Group-3">
                                    <rect id="Rectangle-2-Copy-3" fill="#50E3C2" x="0" y="0" width="298.9" height="49" rx="12.6"></rect>
                                    <text id="INVITE-FRIENDS-FOR-G" font-family="CircularStd-Bold, Circular Std" font-size="14" font-weight="bold" letter-spacing="1.4" fill="#FFFFFF">
                                        <tspan x="17.5" y="29.4">INVITE FRIENDS FOR GROUP TES</tspan>
                                        <tspan x="276.668" y="29.4">T</tspan>
                                    </text>
                                </g>
                            </g>
                        </g>
                    </g>
                </g>
            </g>
        </g>
    </g>
</svg>