<?xml version="1.0" encoding="UTF-8"?>
<svg width="1632px" height="664px" viewBox="0 0 1632 664" version="1.1" xmlns="http://www.w3.org/2000/svg" xmlns:xlink="http://www.w3.org/1999/xlink">
    <!-- Generator: Sketch 50.2 (55047) - http://www.bohemiancoding.com/sketch -->
    <title>Looper_Group</title>
    <desc>Created with Sketch.</desc>
    <defs>
        <linearGradient x1="15.3884151%" y1="-11.78125%" x2="83.1348794%" y2="72.0546875%" id="linearGradient-1">
            <stop stop-color="#285199" stop-opacity="0.273012908" offset="0%"></stop>
            <stop stop-color="#50E3C2" offset="100%"></stop>
        </linearGradient>
    </defs>
    <g id="Page-1" stroke="none" stroke-width="1" fill="none" fill-rule="evenodd">
        <g id="3-Features" transform="translate(-161.000000, -162.000000)" stroke="url(#linearGradient-1)" stroke-width="4">
            <g id="Group-3" transform="translate(163.000000, -116.000000)">
                <g id="Looper_Group" transform="translate(821.000000, 610.000000) scale(1, -1) translate(-821.000000, -610.000000) translate(0.000000, 276.000000)">
                    <g id="original_duplicate_1_original_Oval-8_87640717_78843500-Group">
                        <ellipse id="duplicate_50_original_duplicate_1_original_Oval-8_87640717_78843500" transform="translate(1310.000000, 333.811543) rotate(196.000000) translate(-1310.000000, -333.811543) " cx="1310" cy="333.811543" rx="330" ry="50.8115431"></ellipse>
                        <ellipse id="duplicate_49_original_duplicate_1_original_Oval-8_87640717_78843500" transform="translate(1290.000000, 333.811543) rotate(192.000000) translate(-1290.000000, -333.811543) " cx="1290" cy="333.811543" rx="330" ry="50.8115431"></ellipse>
                        <ellipse id="duplicate_48_original_duplicate_1_original_Oval-8_87640717_78843500" transform="translate(1270.000000, 333.811543) rotate(188.000000) translate(-1270.000000, -333.811543) " cx="1270" cy="333.811543" rx="330" ry="50.8115431"></ellipse>
                        <ellipse id="duplicate_47_original_duplicate_1_original_Oval-8_87640717_78843500" transform="translate(1250.000000, 333.811543) rotate(184.000000) translate(-1250.000000, -333.811543) " cx="1250" cy="333.811543" rx="330" ry="50.8115431"></ellipse>
                        <ellipse id="duplicate_46_original_duplicate_1_original_Oval-8_87640717_78843500" transform="translate(1230.000000, 333.811543) rotate(180.000000) translate(-1230.000000, -333.811543) " cx="1230" cy="333.811543" rx="330" ry="50.8115431"></ellipse>
                        <ellipse id="duplicate_45_original_duplicate_1_original_Oval-8_87640717_78843500" transform="translate(1210.000000, 333.811543) rotate(176.000000) translate(-1210.000000, -333.811543) " cx="1210" cy="333.811543" rx="330" ry="50.8115431"></ellipse>
                        <ellipse id="duplicate_44_original_duplicate_1_original_Oval-8_87640717_78843500" transform="translate(1190.000000, 333.811543) rotate(172.000000) translate(-1190.000000, -333.811543) " cx="1190" cy="333.811543" rx="330" ry="50.8115431"></ellipse>
                        <ellipse id="duplicate_43_original_duplicate_1_original_Oval-8_87640717_78843500" transform="translate(1170.000000, 333.811543) rotate(168.000000) translate(-1170.000000, -333.811543) " cx="1170" cy="333.811543" rx="330" ry="50.8115431"></ellipse>
                        <ellipse id="duplicate_42_original_duplicate_1_original_Oval-8_87640717_78843500" transform="translate(1150.000000, 333.811543) rotate(164.000000) translate(-1150.000000, -333.811543) " cx="1150" cy="333.811543" rx="330" ry="50.8115431"></ellipse>
                        <ellipse id="duplicate_41_original_duplicate_1_original_Oval-8_87640717_78843500" transform="translate(1130.000000, 333.811543) rotate(160.000000) translate(-1130.000000, -333.811543) " cx="1130" cy="333.811543" rx="330" ry="50.8115431"></ellipse>
                        <ellipse id="duplicate_40_original_duplicate_1_original_Oval-8_87640717_78843500" transform="translate(1110.000000, 333.811543) rotate(156.000000) translate(-1110.000000, -333.811543) " cx="1110" cy="333.811543" rx="330" ry="50.8115431"></ellipse>
                        <ellipse id="duplicate_39_original_duplicate_1_original_Oval-8_87640717_78843500" transform="translate(1090.000000, 333.811543) rotate(152.000000) translate(-1090.000000, -333.811543) " cx="1090" cy="333.811543" rx="330" ry="50.8115431"></ellipse>
                        <ellipse id="duplicate_38_original_duplicate_1_original_Oval-8_87640717_78843500" transform="translate(1070.000000, 333.811543) rotate(148.000000) translate(-1070.000000, -333.811543) " cx="1070" cy="333.811543" rx="330" ry="50.8115431"></ellipse>
                        <ellipse id="duplicate_37_original_duplicate_1_original_Oval-8_87640717_78843500" transform="translate(1050.000000, 333.811543) rotate(144.000000) translate(-1050.000000, -333.811543) " cx="1050" cy="333.811543" rx="330" ry="50.8115431"></ellipse>
                        <ellipse id="duplicate_36_original_duplicate_1_original_Oval-8_87640717_78843500" transform="translate(1030.000000, 333.811543) rotate(140.000000) translate(-1030.000000, -333.811543) " cx="1030" cy="333.811543" rx="330" ry="50.8115431"></ellipse>
                        <ellipse id="duplicate_35_original_duplicate_1_original_Oval-8_87640717_78843500" transform="translate(1010.000000, 333.811543) rotate(136.000000) translate(-1010.000000, -333.811543) " cx="1010" cy="333.811543" rx="330" ry="50.8115431"></ellipse>
                        <ellipse id="duplicate_34_original_duplicate_1_original_Oval-8_87640717_78843500" transform="translate(990.000000, 333.811543) rotate(132.000000) translate(-990.000000, -333.811543) " cx="990" cy="333.811543" rx="330" ry="50.8115431"></ellipse>
                        <ellipse id="duplicate_33_original_duplicate_1_original_Oval-8_87640717_78843500" transform="translate(970.000000, 333.811543) rotate(128.000000) translate(-970.000000, -333.811543) " cx="970" cy="333.811543" rx="330" ry="50.8115431"></ellipse>
                        <ellipse id="duplicate_32_original_duplicate_1_original_Oval-8_87640717_78843500" transform="translate(950.000000, 333.811543) rotate(124.000000) translate(-950.000000, -333.811543) " cx="950" cy="333.811543" rx="330" ry="50.8115431"></ellipse>
                        <ellipse id="duplicate_31_original_duplicate_1_original_Oval-8_87640717_78843500" transform="translate(930.000000, 333.811543) rotate(120.000000) translate(-930.000000, -333.811543) " cx="930" cy="333.811543" rx="330" ry="50.8115431"></ellipse>
                        <ellipse id="duplicate_30_original_duplicate_1_original_Oval-8_87640717_78843500" transform="translate(910.000000, 333.811543) rotate(116.000000) translate(-910.000000, -333.811543) " cx="910" cy="333.811543" rx="330" ry="50.8115431"></ellipse>
                        <ellipse id="duplicate_29_original_duplicate_1_original_Oval-8_87640717_78843500" transform="translate(890.000000, 333.811543) rotate(112.000000) translate(-890.000000, -333.811543) " cx="890" cy="333.811543" rx="330" ry="50.8115431"></ellipse>
                        <ellipse id="duplicate_28_original_duplicate_1_original_Oval-8_87640717_78843500" transform="translate(870.000000, 333.811543) rotate(108.000000) translate(-870.000000, -333.811543) " cx="870" cy="333.811543" rx="330" ry="50.8115431"></ellipse>
                        <ellipse id="duplicate_27_original_duplicate_1_original_Oval-8_87640717_78843500" transform="translate(850.000000, 333.811543) rotate(104.000000) translate(-850.000000, -333.811543) " cx="850" cy="333.811543" rx="330" ry="50.8115431"></ellipse>
                        <ellipse id="duplicate_26_original_duplicate_1_original_Oval-8_87640717_78843500" transform="translate(830.000000, 333.811543) rotate(100.000000) translate(-830.000000, -333.811543) " cx="830" cy="333.811543" rx="330" ry="50.8115431"></ellipse>
                        <ellipse id="duplicate_25_original_duplicate_1_original_Oval-8_87640717_78843500" transform="translate(810.000000, 333.811543) rotate(96.000000) translate(-810.000000, -333.811543) " cx="810" cy="333.811543" rx="330" ry="50.8115431"></ellipse>
                        <ellipse id="duplicate_24_original_duplicate_1_original_Oval-8_87640717_78843500" transform="translate(790.000000, 333.811543) rotate(92.000000) translate(-790.000000, -333.811543) " cx="790" cy="333.811543" rx="330" ry="50.8115431"></ellipse>
                        <ellipse id="duplicate_23_original_duplicate_1_original_Oval-8_87640717_78843500" transform="translate(770.000000, 333.811543) rotate(88.000000) translate(-770.000000, -333.811543) " cx="770" cy="333.811543" rx="330" ry="50.8115431"></ellipse>
                        <ellipse id="duplicate_22_original_duplicate_1_original_Oval-8_87640717_78843500" transform="translate(750.000000, 333.811543) rotate(84.000000) translate(-750.000000, -333.811543) " cx="750" cy="333.811543" rx="330" ry="50.8115431"></ellipse>
                        <ellipse id="duplicate_21_original_duplicate_1_original_Oval-8_87640717_78843500" transform="translate(730.000000, 333.811543) rotate(80.000000) translate(-730.000000, -333.811543) " cx="730" cy="333.811543" rx="330" ry="50.8115431"></ellipse>
                        <ellipse id="duplicate_20_original_duplicate_1_original_Oval-8_87640717_78843500" transform="translate(710.000000, 333.811543) rotate(76.000000) translate(-710.000000, -333.811543) " cx="710" cy="333.811543" rx="330" ry="50.8115431"></ellipse>
                        <ellipse id="duplicate_19_original_duplicate_1_original_Oval-8_87640717_78843500" transform="translate(690.000000, 333.811543) rotate(72.000000) translate(-690.000000, -333.811543) " cx="690" cy="333.811543" rx="330" ry="50.8115431"></ellipse>
                        <ellipse id="duplicate_18_original_duplicate_1_original_Oval-8_87640717_78843500" transform="translate(670.000000, 333.811543) rotate(68.000000) translate(-670.000000, -333.811543) " cx="670" cy="333.811543" rx="330" ry="50.8115431"></ellipse>
                        <ellipse id="duplicate_17_original_duplicate_1_original_Oval-8_87640717_78843500" transform="translate(650.000000, 333.811543) rotate(64.000000) translate(-650.000000, -333.811543) " cx="650" cy="333.811543" rx="330" ry="50.8115431"></ellipse>
                        <ellipse id="duplicate_16_original_duplicate_1_original_Oval-8_87640717_78843500" transform="translate(630.000000, 333.811543) rotate(60.000000) translate(-630.000000, -333.811543) " cx="630" cy="333.811543" rx="330" ry="50.8115431"></ellipse>
                        <ellipse id="duplicate_15_original_duplicate_1_original_Oval-8_87640717_78843500" transform="translate(610.000000, 333.811543) rotate(56.000000) translate(-610.000000, -333.811543) " cx="610" cy="333.811543" rx="330" ry="50.8115431"></ellipse>
                        <ellipse id="duplicate_14_original_duplicate_1_original_Oval-8_87640717_78843500" transform="translate(590.000000, 333.811543) rotate(52.000000) translate(-590.000000, -333.811543) " cx="590" cy="333.811543" rx="330" ry="50.8115431"></ellipse>
                        <ellipse id="duplicate_13_original_duplicate_1_original_Oval-8_87640717_78843500" transform="translate(570.000000, 333.811543) rotate(48.000000) translate(-570.000000, -333.811543) " cx="570" cy="333.811543" rx="330" ry="50.8115431"></ellipse>
                        <ellipse id="duplicate_12_original_duplicate_1_original_Oval-8_87640717_78843500" transform="translate(550.000000, 333.811543) rotate(44.000000) translate(-550.000000, -333.811543) " cx="550" cy="333.811543" rx="330" ry="50.8115431"></ellipse>
                        <ellipse id="duplicate_11_original_duplicate_1_original_Oval-8_87640717_78843500" transform="translate(530.000000, 333.811543) rotate(40.000000) translate(-530.000000, -333.811543) " cx="530" cy="333.811543" rx="330" ry="50.8115431"></ellipse>
                        <ellipse id="duplicate_10_original_duplicate_1_original_Oval-8_87640717_78843500" transform="translate(510.000000, 333.811543) rotate(36.000000) translate(-510.000000, -333.811543) " cx="510" cy="333.811543" rx="330" ry="50.8115431"></ellipse>
                        <ellipse id="duplicate_9_original_duplicate_1_original_Oval-8_87640717_78843500" transform="translate(490.000000, 333.811543) rotate(32.000000) translate(-490.000000, -333.811543) " cx="490" cy="333.811543" rx="330" ry="50.8115431"></ellipse>
                        <ellipse id="duplicate_8_original_duplicate_1_original_Oval-8_87640717_78843500" transform="translate(470.000000, 333.811543) rotate(28.000000) translate(-470.000000, -333.811543) " cx="470" cy="333.811543" rx="330" ry="50.8115431"></ellipse>
                        <ellipse id="duplicate_7_original_duplicate_1_original_Oval-8_87640717_78843500" transform="translate(450.000000, 333.811543) rotate(24.000000) translate(-450.000000, -333.811543) " cx="450" cy="333.811543" rx="330" ry="50.8115431"></ellipse>
                        <ellipse id="duplicate_6_original_duplicate_1_original_Oval-8_87640717_78843500" transform="translate(430.000000, 333.811543) rotate(20.000000) translate(-430.000000, -333.811543) " cx="430" cy="333.811543" rx="330" ry="50.8115431"></ellipse>
                        <ellipse id="duplicate_5_original_duplicate_1_original_Oval-8_87640717_78843500" transform="translate(410.000000, 333.811543) rotate(16.000000) translate(-410.000000, -333.811543) " cx="410" cy="333.811543" rx="330" ry="50.8115431"></ellipse>
                        <ellipse id="duplicate_4_original_duplicate_1_original_Oval-8_87640717_78843500" transform="translate(390.000000, 333.811543) rotate(12.000000) translate(-390.000000, -333.811543) " cx="390" cy="333.811543" rx="330" ry="50.8115431"></ellipse>
                        <ellipse id="duplicate_3_original_duplicate_1_original_Oval-8_87640717_78843500" transform="translate(370.000000, 333.811543) rotate(8.000000) translate(-370.000000, -333.811543) " cx="370" cy="333.811543" rx="330" ry="50.8115431"></ellipse>
                        <ellipse id="duplicate_2_original_duplicate_1_original_Oval-8_87640717_78843500" transform="translate(350.000000, 333.811543) rotate(4.000000) translate(-350.000000, -333.811543) " cx="350" cy="333.811543" rx="330" ry="50.8115431"></ellipse>
                        <ellipse id="duplicate_1_original_duplicate_1_original_Oval-8_87640717_78843500" cx="330" cy="333.811543" rx="330" ry="50.8115431"></ellipse>
                    </g>
                </g>
            </g>
        </g>
    </g>
</svg>