<?xml version="1.0" encoding="UTF-8"?>
<svg width="154px" height="154px" viewBox="0 0 154 154" version="1.1" xmlns="http://www.w3.org/2000/svg" xmlns:xlink="http://www.w3.org/1999/xlink">
    <!-- Generator: Sketch 50.2 (55047) - http://www.bohemiancoding.com/sketch -->
    <title>partner</title>
    <desc>Created with Sketch.</desc>
    <defs></defs>
    <g id="Page-1" stroke="none" stroke-width="1" fill="none" fill-rule="evenodd">
        <g id="1-Home" transform="translate(-1465.000000, -4098.000000)" fill-rule="nonzero">
            <g id="Section-4" transform="translate(0.000000, 3713.000000)">
                <g id="partner" transform="translate(1465.000000, 385.000000)">
                    <circle id="Oval" fill="#B58C6A" cx="23.8964688" cy="42.4826445" r="13.2758828"></circle>
                    <polygon id="Shape" fill="#FFA511" points="18.5861758 66.3794141 0 154 47.7932383 154 29.337 66.3794141"></polygon>
                    <path d="M5.14847266,129.729059 L0,154 L47.7932383,154 L37.4565898,104.929645 C29.1005859,115.938238 17.943707,124.503586 5.14847266,129.729059 Z" id="Shape" fill="#F08015"></path>
                    <g id="Group" transform="translate(50.230469, 42.410156)">
                        <polygon id="Shape" fill="#FFA511" points="74.5627695 23.9692578 55.976293 111.589844 103.769531 111.589844 85.313293 23.9692578"></polygon>
                        <polygon id="Shape" fill="#E5E5E5" points="21.4592383 111.589844 0.217765625 0.0724882813 53.3212969 0.0724882813 32.0798242 111.589844"></polygon>
                    </g>
                    <circle id="Oval" fill="#B58C6A" cx="77" cy="15.9311797" r="15.9311797"></circle>
                    <polygon id="Shape" fill="#242424" points="84.9655898 90.2758828 79.6552969 53.1035313 84.9655898 42.4826445 69.0344102 42.4826445 74.3447031 53.1035313 69.0344102 90.2758828 77 103.551766"></polygon>
                    <g id="Group" transform="translate(21.054688, 82.113281)" fill="#FFDC13">
                        <rect id="Rectangle-path" x="0.186785156" y="0.197011719" width="5.31029297" height="5.31029297"></rect>
                        <rect id="Rectangle-path" x="0.186785156" y="10.8178984" width="5.31029297" height="5.31029297"></rect>
                        <rect id="Rectangle-path" x="106.393547" y="0.197011719" width="5.31029297" height="5.31029297"></rect>
                        <rect id="Rectangle-path" x="106.393547" y="10.8178984" width="5.31029297" height="5.31029297"></rect>
                    </g>
                    <path d="M86.8505859,3.42529687 C92.2962305,10.3261211 91.1174688,20.3361211 84.2166445,25.7817656 C78.4335234,30.3461211 70.2769375,30.3461211 64.4941172,25.7817656 C69.8973516,32.725 79.9073516,33.9756484 86.8505859,28.5724141 C93.7938203,23.1691797 95.0444688,13.1591797 89.6412344,6.21594531 C88.8288242,5.17223438 87.8915898,4.235 86.8505859,3.42529687 Z" id="Shape" fill="#544538"></path>
                    <g id="Group" transform="translate(65.570312, 97.453125)">
                        <path d="M0.147984375,25.1919336 L6.11939453,56.546875 L16.7399805,56.546875 L27.4694492,0.220171875 C20.7918047,10.8645195 11.3499805,19.4966406 0.147984375,25.1919336 Z" id="Shape" fill="#D2D2D2"></path>
                        <path d="M45.7849219,32.2759336 L40.6364492,56.546875 L88.4296875,56.546875 L78.0930391,7.47651953 C69.7373359,18.4851133 58.5801562,27.0504609 45.7849219,32.2759336 Z" id="Shape" fill="#F08015"></path>
                    </g>
                    <path d="M31.8301758,31.8939414 C36.2429375,37.7113516 35.1038789,46.0035898 29.2891758,50.4163516 C24.565707,54.0007617 18.0312344,54.0007617 13.3077656,50.4163516 C17.6702969,56.284293 25.9622344,57.5057656 31.8301758,53.1459414 C37.6981172,48.7861172 38.9195898,40.4914727 34.5597656,34.6235312 C33.7870586,33.5852344 32.8684727,32.6639414 31.8301758,31.8939414 Z" id="Shape" fill="#544538"></path>
                    <circle id="Oval" fill="#B58C6A" cx="130.103531" cy="42.4826445" r="13.2758828"></circle>
                    <path d="M138.037238,31.8939414 C142.45,37.7113516 141.310941,46.0035898 135.496238,50.4163516 C130.77277,54.0007617 124.238297,54.0007617 119.514828,50.4163516 C123.877359,56.284293 132.169297,57.5057656 138.037238,53.1459414 C143.90518,48.7834102 145.126652,40.4914727 140.766828,34.6235312 C139.99382,33.5852344 139.075234,32.6639414 138.037238,31.8939414 Z" id="Shape" fill="#544538"></path>
                </g>
            </g>
        </g>
    </g>
</svg>