<?xml version="1.0" encoding="UTF-8"?>
<svg width="154px" height="154px" viewBox="0 0 154 154" version="1.1" xmlns="http://www.w3.org/2000/svg" xmlns:xlink="http://www.w3.org/1999/xlink">
    <!-- Generator: Sketch 50.2 (55047) - http://www.bohemiancoding.com/sketch -->
    <title>winner (1)</title>
    <desc>Created with Sketch.</desc>
    <defs></defs>
    <g id="Page-1" stroke="none" stroke-width="1" fill="none" fill-rule="evenodd">
        <g id="1-Home" transform="translate(-301.000000, -4098.000000)" fill-rule="nonzero">
            <g id="Section-4" transform="translate(0.000000, 3713.000000)">
                <g id="winner-(1)" transform="translate(301.000000, 385.000000)">
                    <rect id="Rectangle-path" fill="#FFDC13" x="103.551766" y="100.896469" width="50.4482344" height="53.1035313"></rect>
                    <rect id="Rectangle-path" fill="#FFA511" x="50.4482344" y="53.1035312" width="53.1035313" height="100.896469"></rect>
                    <rect id="Rectangle-path" fill="#FFDC13" x="0" y="100.896469" width="50.4482344" height="53.1035313"></rect>
                    <g id="Group" transform="translate(47.523438, 2.406250)" fill="#FFA511">
                        <path d="M21.5109727,32.1111055 C21.2640312,32.1111055 21.0197969,32.0765156 20.7806758,32.0103437 C8.66520703,28.5029336 0.311910156,17.428168 0.2695,4.81610937 L0.2695,2.90434375 C0.2695,1.43863672 1.45908984,0.249046875 2.92479688,0.249046875 L10.8903867,0.249046875 C12.3560938,0.249046875 13.5456836,1.43863672 13.5456836,2.90434375 C13.5456836,4.37005078 12.3560938,5.55964062 10.8903867,5.55964062 L5.58009375,5.55964062 C5.93591797,15.5245234 12.6508594,24.132582 22.2307422,26.901875 C23.6405039,27.3028164 24.4610352,28.7712305 24.0600938,30.1809922 C23.7361523,31.31975 22.6951484,32.1083984 21.5109727,32.1111055 Z" id="Shape"></path>
                        <path d="M37.4421523,32.1111055 C35.9764453,32.1138125 34.7844492,30.9269297 34.7817422,29.4612227 C34.7790352,28.2716328 35.5676836,27.2255156 36.7121562,26.9015742 C46.2947461,24.1373945 53.0175078,15.5269297 53.373332,5.55933984 L48.0630391,5.55933984 C46.597332,5.55933984 45.4077422,4.36975 45.4077422,2.90404297 C45.4077422,1.43833594 46.597332,0.248746094 48.0630391,0.248746094 L56.0286289,0.248746094 C57.4943359,0.248746094 58.6839258,1.43833594 58.6839258,2.90404297 L58.6839258,4.81580859 C58.6415156,17.4278672 50.2882187,28.5026328 38.17275,32.010043 C37.9333281,32.0765156 37.6890937,32.1111055 37.4421523,32.1111055 Z" id="Shape"></path>
                    </g>
                    <path d="M69.0344102,26.5517656 C62.2346484,19.7520039 58.4138242,10.5279453 58.4138242,0.910765625 L58.4138242,0 L95.5861758,0 L95.5861758,0.910765625 C95.5861758,10.5279453 91.7653516,19.7520039 84.9655898,26.5517656 L69.0344102,26.5517656 Z" id="Shape" fill="#FFDC13"></path>
                    <path d="M66.3421172,23.5087617 C67.1812969,24.5735273 68.0812344,25.5877617 69.0344102,26.5514648 L84.9655898,26.5514648 C90.9715898,20.5400508 94.6730039,12.6090508 95.4270625,4.14446484 C89.2351797,14.7388828 78.5027031,21.8839414 66.3421172,23.5087617 Z" id="Shape" fill="#E5AF17"></path>
                    <rect id="Rectangle-path" fill="#FFA511" x="71.689707" y="34.5173555" width="10.6205859" height="7.96558984"></rect>
                    <polygon id="Shape" fill="#F08015" points="69.0344102 26.5517656 69.0344102 31.8620586 71.689707 34.5173555 82.310293 34.5173555 84.9655898 31.8620586 84.9655898 26.5517656"></polygon>
                    <rect id="Rectangle-path" fill="#E5AF17" x="66.3794141" y="47.7932383" width="21.2414727" height="5.31029297"></rect>
                    <polygon id="Shape" fill="#FFDC13" points="71.689707 42.4826445 66.3794141 47.7932383 87.6205859 47.7932383 82.310293 42.4826445"></polygon>
                    <path d="M103.551766,120.048414 L103.551766,154 L154,154 L154,100.896469 L131.603527,100.896469 C122.767176,108.004531 113.389117,114.408766 103.551766,120.048414 Z" id="Shape" fill="#E5AF17"></path>
                    <path d="M50.4482344,141.786176 L50.4482344,154 L103.551766,154 L103.551766,120.048414 C86.9011172,129.63341 69.0398242,136.945703 50.4482344,141.786176 Z" id="Shape" fill="#F08015"></path>
                    <path d="M0,148.588645 L0,154 L50.4482344,154 L50.4482344,141.786176 C33.957,146.02659 17.0248203,148.30982 0,148.588645 Z" id="Shape" fill="#E5AF17"></path>
                </g>
            </g>
        </g>
    </g>
</svg>